<?xml version="1.0" encoding="UTF-8"?>
<!-- Created with Inkscape (http://www.inkscape.org/) -->
<svg width="12.472mm" height="12.328mm" version="1.1" viewBox="0 0 12.472 12.328" xmlns="http://www.w3.org/2000/svg">
 <g transform="translate(-85.3 -56.448)">
  <circle transform="matrix(.92017 .39153 -.40605 .91385 0 0)" cx="109.09" cy="21.777" r="6.2" fill="#0b0b0b" stroke-width=".27203"/>
  <path d="m89.239 59.071c-78.368-51.909-78.368-51.909 0 0zm0 0c0.21551 0 0.40722 0.04458 0.57507 0.13422 0.16785 0.08965 0.29944 0.21802 0.39476 0.38481 0.0974 0.16679 0.14616 0.36595 0.14616 0.59738 0 0.0959-0.01182 0.18954-0.0346 0.28128-0.02073 0.09173-0.05368 0.17508-0.09926 0.25013-0.04558 0.07298-0.1017 0.1328-0.16802 0.17866-0.06631 0.04378-0.14468 0.06551-0.23585 0.06551-0.09532 0-0.17126-0.02733-0.22721-0.08154-0.05388-0.0563-0.08682-0.11969-0.09926-0.19057h-0.01548c-0.0373 0.07714-0.09229 0.14165-0.16483 0.19378-0.07253 0.05212-0.16382 0.07834-0.27365 0.07834-0.15749 0-0.27995-0.05309-0.36699-0.15942-0.08497-0.10633-0.12704-0.24725-0.12704-0.42238 0-0.1376 0.02671-0.25858 0.0806-0.36283 0.05388-0.10633 0.12935-0.18967 0.22675-0.25013 0.09947-0.06046 0.21681-0.09071 0.35151-0.09071 0.09118 0 0.18024 0.0085 0.26727 0.02519 0.08911 0.0146 0.15835 0.03117 0.20808 0.04993l-0.03096 0.63495c-0.0021 0.03752-0.0032 0.06441-0.0032 0.08109v0.03162c0 0.10842 0.0187 0.18033 0.056 0.21577 0.03937 0.03544 0.08525 0.05314 0.13706 0.05314 0.06424 0 0.11812-0.02623 0.16164-0.07834 0.04559-0.05421 0.07966-0.125 0.10244-0.21257 0.02487-0.08965 0.03733-0.18778 0.03733-0.2941 0-0.1939-0.03964-0.35766-0.11838-0.4911-0.07667-0.13552-0.18332-0.23834-0.32009-0.30923-0.13469-0.07088-0.28788-0.10674-0.45987-0.10674-0.23623 0-0.43641 0.04906-0.60012 0.14705-0.16163 0.09799-0.28476 0.23375-0.36972 0.40681-0.08289 0.17096-0.12431 0.36675-0.12431 0.58776 0 0.30856 0.0806 0.54537 0.24223 0.71007 0.16163 0.16471 0.39476 0.20615 0.69937 0.20615 0.1264 0 0.19962-0.01662 0.38793-0.04581 0.10782-0.01332 0.17181-0.04055 0.27638-0.04719v-0.0036h5.2194v-1.2809c0-0.49112-0.39292-0.88645-0.88105-0.88645zm-0.03415 0.80352c-0.10154 0-0.18371 0.02509-0.24587 0.07513-0.06217 0.05004-0.10647 0.11455-0.13341 0.19378-0.02694 0.07714-0.04052 0.15869-0.04052 0.24418 0 0.13344 0.02606 0.23044 0.07786 0.2909 0.05388 0.06046 0.12535 0.09071 0.21446 0.09071 0.11604 0 0.19887-0.04391 0.2486-0.13148 0.05179-0.08757 0.08186-0.20115 0.09015-0.34083l0.01867-0.39077c-0.02694-0.0084-0.061-0.01572-0.10244-0.022-0.04144-0.0063-0.08397-0.0096-0.12749-0.0096zm-1.2836 0.56302v2.5737h1.6492v-1.4765c-0.03892 4.49e-4 -0.07819 0.0022-0.11702 0.01008-0.10983 0.02502-0.23229 0.03757-0.36699 0.03757-0.24452 0-0.45382-0.04615-0.62789-0.1379-0.17407-0.09173-0.30743-0.22301-0.40068-0.39398-0.08999-0.17078-0.13541-0.37517-0.1366-0.61295zm1.9575 1.111v1.4627h1.4534v-1.4627zm1.7617 0v1.4627h1.4538v-1.4627zm1.7626 0v1.4627h1.5672v-1.4627zm-5.4816 1.7734v1.4627h1.6492v-1.4627zm1.9575 0v1.4627h1.4534v-1.4627zm1.7617 0v1.4627h1.4538v-1.4627zm1.7626 0v1.4627h1.5672v-1.4627zm-5.4816 1.7729v0.18187c0 0.49112 0.39292 0.88645 0.88105 0.88645h0.76813v-1.0683zm1.9575 0v1.0683h1.4534v-1.0683zm1.7617 0v1.0683h1.4538v-1.0683zm1.7626 0v1.0683h0.68616c0.48813 0 0.88105-0.39533 0.88105-0.88645v-0.18187z" fill="#eeecd4" stroke-width=".95273"/>
 </g>
</svg>
