<?xml version="1.0" encoding="UTF-8"?>
<!-- Created with Inkscape (http://www.inkscape.org/) -->
<svg width="12mm" height="12mm" version="1.1" viewBox="0 0 12 12" xmlns="http://www.w3.org/2000/svg">
 <g transform="translate(-85.534 -56.611)">
  <circle transform="rotate(23.5)" cx="108.91" cy="20.919" r="6" fill="#a11beb" stroke-width=".265"/>
  <path d="m88.943 58.555c-88.943-58.555-88.943-58.555 0 0zm0 0c0.24459 0 0.46217 0.05028 0.65267 0.15141 0.1905 0.10113 0.33985 0.24593 0.44803 0.43408 0.11054 0.18815 0.16588 0.4128 0.16588 0.67386 0 0.10818-0.01341 0.21381-0.03928 0.31729-0.02352 0.10348-0.06092 0.19749-0.11265 0.28215-0.05174 0.08232-0.11542 0.1498-0.19069 0.20154-0.07526 0.04939-0.1642 0.0739-0.26768 0.0739-0.10818 0-0.19437-0.03083-0.25787-0.09198-0.06115-0.0635-0.09854-0.13501-0.11265-0.21497h-0.01757c-0.04233 0.08702-0.10475 0.15979-0.18707 0.21859-0.08232 0.05879-0.18593 0.08837-0.31058 0.08837-0.17874 0-0.31773-0.05989-0.41651-0.17983-0.09643-0.11994-0.14418-0.2789-0.14418-0.47646 0-0.15522 0.03032-0.29168 0.09147-0.40928 0.06115-0.11994 0.14681-0.21395 0.25735-0.28215 0.11289-0.0682 0.24607-0.10232 0.39894-0.10232 0.10348 0 0.20456 0.0096 0.30334 0.02842 0.10113 0.01647 0.17972 0.03516 0.23616 0.05633l-0.03514 0.71624c-0.0023 0.04233-0.0036 0.07266-0.0036 0.09147v0.03566c0 0.1223 0.02123 0.20342 0.06356 0.2434 0.04469 0.03998 0.09675 0.05994 0.15555 0.05994 0.07291 0 0.13406-0.02958 0.18345-0.08837 0.05174-0.06115 0.09041-0.141 0.11627-0.23978 0.02822-0.10113 0.04237-0.21182 0.04237-0.33176 0-0.21872-0.04499-0.40345-0.13436-0.55397-0.08702-0.15287-0.20806-0.26885-0.36328-0.34882-0.15287-0.07996-0.32673-0.12041-0.52193-0.12041-0.26811 0-0.4953 0.05534-0.6811 0.16588-0.18344 0.11054-0.32319 0.26368-0.41961 0.45889-0.09408 0.19285-0.14108 0.41371-0.14108 0.66301 0 0.34807 0.09147 0.61519 0.27492 0.80098 0.18344 0.1858 0.44803 0.23254 0.79375 0.23254 0.14346 0 0.22656-0.01875 0.44028-0.05168 0.12237-0.01503 0.19499-0.04574 0.31368-0.05323v-0.0041h5.9237v-1.4449c0-0.554-0.44594-0.99994-0.99994-0.99994zm-0.03876 0.9064c-0.11524 0-0.2085 0.0283-0.27905 0.08475-0.07056 0.05645-0.12084 0.12922-0.15141 0.21859-0.03057 0.08702-0.04599 0.17901-0.04599 0.27544 0 0.15052 0.02958 0.25994 0.08837 0.32814 0.06115 0.0682 0.14226 0.10232 0.2434 0.10232 0.1317 0 0.22571-0.04953 0.28215-0.14831 0.05879-0.09878 0.09291-0.2269 0.10232-0.38447l0.02119-0.4408c-0.03057-0.0094-0.06923-0.01774-0.11627-0.02481-0.04703-0.0071-0.0953-0.01085-0.14469-0.01085zm-1.4568 0.6351v2.9032h1.8717v-1.6655c-0.04417 5.06e-4 -0.08874 0.0024-0.13281 0.01137-0.12465 0.02822-0.26364 0.04237-0.41651 0.04237-0.27752 0-0.51506-0.05206-0.71262-0.15555-0.19756-0.10348-0.34892-0.25156-0.45475-0.44442-0.10213-0.19265-0.15368-0.4232-0.15503-0.69143zm2.2216 1.2532v1.65h1.6495v-1.65zm1.9994 0v1.65h1.65v-1.65zm2.0004 0v1.65h1.7787v-1.65zm-6.2213 2.0004v1.65h1.8717v-1.65zm2.2216 0v1.65h1.6495v-1.65zm1.9994 0v1.65h1.65v-1.65zm2.0004 0v1.65h1.7787v-1.65zm-6.2213 1.9999v0.20516c0 0.554 0.44594 0.99994 0.99994 0.99994h0.87178v-1.2051zm2.2216 0v1.2051h1.6495v-1.2051zm1.9994 0v1.2051h1.65v-1.2051zm2.0004 0v1.2051h0.77876c0.554 0 0.99994-0.44594 0.99994-0.99994v-0.20516z" fill="#fff" stroke-width="1.0775"/>
 </g>
</svg>
